# xmcd
#
# Track frame offsets:
#	150
#	20237
#	37835
#	56632
#	71612
#	89570
#	109902
#	128030
#	148295
#	169547
#	188345
#
# Disc length: 2731 seconds
#
# Revision: 1
# Processed by: cddbd v1.5.1PL0 Copyright (c) Steve Scherf et al.
# Submitted via: CDex 1.50Beta5
#
DISCID=980aa90b
DTITLE=劉 - 真生命
DYEAR=1900
DGENRE=
TTITLE0=真生命
TTITLE1=舞照跳
TTITLE2=愛太難
TTITLE3=匹夫最勇
TTITLE4=甘心
TTITLE5=兄弟姉妹
TTITLE6=自私
TTITLE7=意亂情迷
TTITLE8=不談情感
TTITLE9=桃花源
TTITLE10=愛太難 (Piano Version)
EXTD=
EXTT0=
EXTT1=
EXTT2=
EXTT3=
EXTT4=
EXTT5=
EXTT6=
EXTT7=
EXTT8=
EXTT9=
EXTT10=
PLAYORDER=
